<svg width="128" height="128" viewBox="0 0 128 128" fill="none" xmlns="http://www.w3.org/2000/svg">
<path d="M100 68C100 85.6731 85.6731 100 68 100C50.3269 100 36 85.6731 36 68C36 50.3269 50.3269 36 68 36C85.6731 36 100 50.3269 100 68ZM52 68C52 76.8366 59.1634 84 68 84C76.8366 84 84 76.8366 84 68C84 59.1634 76.8366 52 68 52C59.1634 52 52 59.1634 52 68Z" fill="url(#paint0_linear_16_6)"/>
<path d="M128 64C128 99.3462 99.3462 128 64 128C28.6538 128 0 99.3462 0 64C0 28.6538 28.6538 0 64 0C99.3462 0 128 28.6538 128 64ZM12.8 64C12.8 92.277 35.723 115.2 64 115.2C92.277 115.2 115.2 92.277 115.2 64C115.2 35.723 92.277 12.8 64 12.8C35.723 12.8 12.8 35.723 12.8 64Z" fill="url(#paint1_linear_16_6)"/>
<defs>
<linearGradient id="paint0_linear_16_6" x1="85.5" y1="42.25" x2="48.25" y2="90.75" gradientUnits="userSpaceOnUse">
<stop stop-color="#3385E4"/>
<stop offset="1" stop-color="#1C4A7E"/>
</linearGradient>
<linearGradient id="paint1_linear_16_6" x1="99" y1="12.5" x2="24.5" y2="109.5" gradientUnits="userSpaceOnUse">
<stop stop-color="#3385E4"/>
<stop offset="1" stop-color="#1C4A7E"/>
</linearGradient>
</defs>
</svg>
